<?xml version="1.0" encoding="UTF-8" standalone="no"?>
<svg
   version="1.1"
   id="Layer_1"
   x="0px"
   y="0px"
   width="100%"
   viewBox="0 0 1024 1024"
   enable-background="new 0 0 1024 1024"
   xml:space="preserve"
   sodipodi:docname="simplekivy-icon.svg"
   inkscape:version="1.4.2 (f4327f4, 2025-05-13)"
   inkscape:export-filename="simplekivy-icon-16.png"
   inkscape:export-xdpi="1.536"
   inkscape:export-ydpi="1.536"
   xmlns:inkscape="http://www.inkscape.org/namespaces/inkscape"
   xmlns:sodipodi="http://sodipodi.sourceforge.net/DTD/sodipodi-0.dtd"
   xmlns="http://www.w3.org/2000/svg"
   xmlns:svg="http://www.w3.org/2000/svg"><defs
   id="defs9" /><sodipodi:namedview
   id="namedview9"
   pagecolor="#505050"
   bordercolor="#ffffff"
   borderopacity="1"
   inkscape:showpageshadow="0"
   inkscape:pageopacity="0"
   inkscape:pagecheckerboard="1"
   inkscape:deskcolor="#505050"
   inkscape:zoom="0.39362745"
   inkscape:cx="-118.132"
   inkscape:cy="481.41968"
   inkscape:window-width="1920"
   inkscape:window-height="1005"
   inkscape:window-x="1912"
   inkscape:window-y="-8"
   inkscape:window-maximized="1"
   inkscape:current-layer="Layer_1" />

<circle
   style="display:inline;fill:#0e0a0a;fill-opacity:1;stroke-width:54.8032"
   id="ellipse10"
   cx="512"
   cy="512"
   inkscape:label="path10"
   r="500" /><circle
   style="display:none;fill:none;fill-opacity:1;stroke:#17100e;stroke-width:40;stroke-dasharray:none;stroke-opacity:1"
   id="path10"
   cx="512"
   cy="512"
   inkscape:label="edge"
   r="490" /><path
   fill="#3d3d3d"
   opacity="1"
   stroke="none"
   d="M 117.96001,812.07507 C 107.29279,796.5813 96.377121,781.65656 86.588959,766.0257 78.30722,752.80066 70.466492,739.15338 63.986614,724.98144 55.078854,705.49969 46.652618,685.67749 39.850983,665.38733 33.254261,645.70856 27.973181,625.45209 23.932625,605.0885 c -4.783686,-24.10882 -8.667784,-48.48901 -8.857214,-73.21643 -0.142623,-18.61737 -1.1419,-37.31619 0.217855,-55.83353 1.493878,-20.34372 4.985934,-40.56274 8.12884,-60.75491 1.811193,-11.63635 4.413809,-23.16879 7.120647,-34.63934 1.675753,-7.1012 3.962687,-14.08872 6.418181,-20.96921 5.75486,-16.12561 11.208728,-32.3956 17.85878,-48.15375 5.941326,-14.07873 12.646694,-27.9364 20.231586,-41.19562 10.463226,-18.29086 21.52916,-36.29455 33.35963,-53.72723 9.22907,-13.59938 19.35587,-26.73051 30.29203,-38.99204 11.69357,-13.1107 24.42147,-25.37626 37.40425,-37.23757 12.62597,-11.53534 25.68809,-22.70397 39.37179,-32.94744 26.93079,-20.160131 55.65998,-37.634817 86.15873,-51.812829 16.83166,-7.824582 34.39334,-14.294876 52.05581,-20.05822 19.40015,-6.330345 39.103,-12.029251 59.03247,-16.349621 16.67993,-3.615925 33.8678,-4.916069 50.84827,-7.105589 6.92032,-0.892336 13.87463,-1.830258 20.83502,-2.04325 18.13034,-0.554793 36.32691,-1.733197 54.39539,-0.765164 19.36035,1.037245 38.71112,3.583197 57.8692,6.686124 18.81537,3.047407 37.63928,6.697306 55.99017,11.777722 19.48468,5.394287 38.72547,12.012565 57.49982,19.527611 16.76233,6.709701 33.12024,14.682899 48.96612,23.359672 16.7118,9.150932 33.01154,19.20266 48.73591,29.964544 13.94836,9.54634 27.08221,20.33692 40.16082,31.08307 10.50031,8.62759 20.95276,17.45636 30.38495,27.20367 11.0694,11.43931 21.69806,23.45096 31.28223,36.14711 14.11688,18.70064 28.28699,37.53678 40.34039,57.57483 15.06348,25.04212 29.21491,50.79316 38.21234,78.87638 5.68378,17.74051 12.23206,35.3143 16.30946,53.43167 5.2487,23.32196 9.8492,46.97833 12.0798,70.73938 2.3582,25.12054 2.0894,50.53485 2.0052,75.81766 -0.043,12.73706 -1.9423,25.50079 -3.5075,38.19012 -1.4223,11.53174 -3.0052,23.09265 -5.4645,34.4353 -3.1642,14.59388 -6.8236,29.11701 -11.09214,43.42523 -4.98474,16.70875 -9.85406,33.57483 -16.60095,49.60346 -8.11969,19.29004 -17.81842,37.95013 -27.50811,56.53107 -5.44147,10.43451 -11.76459,20.49682 -18.54389,30.12603 -10.8053,15.34778 -21.75293,30.66541 -33.70495,45.1153 -11.09742,13.41656 -23.08338,26.20349 -35.61207,38.30041 -11.69238,11.28937 -24.49731,21.44642 -37.03637,31.83149 -7.54846,6.25189 -15.42621,12.12213 -23.34607,17.90344 -4.69086,3.42413 -9.61139,6.59027 -14.67139,9.44159 -18.39392,10.36505 -36.47644,21.40826 -55.46966,30.547 -17.31867,8.33288 -35.63355,14.61084 -53.5691,21.64209 -23.97747,9.39996 -48.96954,15.36932 -74.19561,19.86413 -18.60584,3.31524 -37.56379,5.10414 -56.4455,6.29484 -18.74206,1.182 -37.60705,1.4512 -56.37701,0.8458 -16.91178,-0.5456 -33.89017,-2.0098 -50.61618,-4.5418 -19.04618,-2.8832 -38.14417,-6.32565 -56.67356,-11.4858 -21.59127,-6.01282 -42.93664,-13.28644 -63.74521,-21.61975 -18.64035,-7.46509 -36.83633,-16.32935 -54.45065,-25.99372 -22.153,-12.1546 -43.61528,-25.59192 -63.26239,-41.67688 -9.12813,-7.47326 -18.8082,-14.32824 -27.47804,-22.29101 -10.39507,-9.54743 -20.08104,-19.8797 -29.88077,-30.05817 -7.36915,-7.65399 -14.52751,-15.51782 -21.59317,-23.45428 -3.41969,-3.84119 -6.41081,-8.06403 -9.8363,-12.37702 M 939.22876,266.31802 C 922.3147,237.92899 903.68213,210.83032 881.25915,186.39017 861.96204,165.35707 841.43408,145.71522 818.91162,128.18967 792.40625,107.56488 764.04004,89.990654 733.63953,75.603371 705.54779,62.308765 676.52429,51.551785 646.72296,42.982716 613.49542,33.42849 579.48602,27.614502 544.94922,26.237019 c -37.14337,-1.481442 -74.25949,-0.469012 -111.00534,6.225467 -38.1149,6.943894 -75.37134,16.633847 -111.08979,32.07705 -25.75268,11.134399 -50.54193,24.022903 -73.71672,39.658934 -17.89973,12.07695 -35.32598,25.10341 -51.60272,39.27028 -17.16261,14.9379 -33.63292,30.91116 -48.73904,47.91293 -20.25217,22.79355 -37.42166,48.03362 -53.056779,74.29291 -17.566048,29.50235 -31.067666,60.80786 -41.632615,93.34839 -5.231216,16.11236 -9.109596,32.69034 -13.052257,49.18854 -5.7803,24.18786 -9.008263,48.83932 -9.820202,73.63928 -0.674686,20.60776 -0.609343,41.35959 1.05442,61.89151 1.797448,22.18182 4.713387,44.4107 9.165234,66.20569 5.900547,28.88745 15.519215,56.77637 26.692387,84.13843 13.874702,33.97772 31.788368,65.65405 53.407402,95.17034 18.01456,24.5951 37.26681,48.23969 60.49552,68.27479 12.72321,10.97387 25.10359,22.40362 38.38826,32.65643 29.25966,22.58185 61.19882,40.78668 94.81094,56.13446 30.40418,13.88287 61.73325,25.07117 94.36594,32.30408 40.45532,8.96685 81.33344,13.26068 122.89725,11.57208 26.5307,-1.07788 52.76684,-3.8216 78.75989,-8.95514 32.44427,-6.40759 64.16717,-15.44971 94.2865,-29.21295 21.77984,-9.95246 43.55548,-20.13446 64.3825,-31.89697 27.15845,-15.3382 52.01172,-34.1211 75.00263,-55.3595 23.05523,-21.29779 44.68371,-43.86371 63.2995,-69.14954 21.00811,-28.53516 38.4613,-59.16711 52.89209,-91.55078 12.58123,-28.23328 22.24084,-57.42956 29.50738,-87.42993 5.85095,-24.15607 9.13355,-48.71088 11.5403,-73.4433 2.7049,-27.79504 2.5279,-55.58127 -0.5114,-83.21616 -4.17618,-37.97033 -11.82419,-75.25543 -24.62326,-111.44589 -10.0357,-28.37695 -22.41772,-55.56332 -37.81848,-82.22043 z"
   id="path2"
   style="display:none"
   sodipodi:nodetypes="cssssssssssssssssssssssssssssssssscssssssssssssssssssssssssccsssssssssssssssssssssssssssssssssc" />
<path
   fill="#0f0a0a"
   opacity="1"
   stroke="none"
   d="m 939.41614,266.63144 c 15.21338,26.34369 27.5954,53.53006 37.6311,81.90701 12.79907,36.19046 20.44708,73.47556 24.62326,111.44589 3.0393,27.63489 3.2163,55.42112 0.5114,83.21616 -2.40675,24.73242 -5.68935,49.28723 -11.5403,73.4433 -7.26654,30.00037 -16.92615,59.19665 -29.50738,87.42993 -14.43079,32.38367 -31.88398,63.01562 -52.89209,91.55078 -18.61579,25.28583 -40.24427,47.85175 -63.2995,69.14954 -22.99091,21.2384 -47.84418,40.0213 -75.00263,55.3595 -20.82702,11.76251 -42.60266,21.94451 -64.3825,31.89697 -30.11933,13.76324 -61.84223,22.80536 -94.2865,29.21295 -25.99305,5.13354 -52.22919,7.87726 -78.75989,8.95514 -41.56381,1.6886 -82.44193,-2.60523 -122.89725,-11.57208 C 376.98117,971.39362 345.6521,960.20532 315.24792,946.32245 281.6358,930.97467 249.69664,912.76984 220.43698,890.18799 207.15231,879.93518 194.77193,868.50543 182.04872,857.53156 158.82001,837.49646 139.56776,813.85187 121.5532,789.25677 99.934166,759.74048 82.0205,728.06415 68.145798,694.08643 56.972626,666.72437 47.353958,638.83545 41.453411,609.948 c -4.451847,-21.79499 -7.367786,-44.02387 -9.165234,-66.20569 -1.663763,-20.53192 -1.729106,-41.28375 -1.05442,-61.89151 0.811939,-24.79996 4.039902,-49.45142 9.820202,-73.63928 3.942661,-16.4982 7.821041,-33.07618 13.052257,-49.18854 10.564949,-32.54053 24.066567,-63.84604 41.632615,-93.34839 15.635119,-26.25929 32.804609,-51.49936 53.056779,-74.29291 15.10612,-17.00177 31.57643,-32.97503 48.73904,-47.91293 16.27674,-14.16687 33.70299,-27.19333 51.60272,-39.27028 23.17479,-15.636031 47.96404,-28.524535 73.71672,-39.658934 35.71845,-15.443203 72.97489,-25.133156 111.08979,-32.07705 36.74585,-6.694479 73.86197,-7.706909 111.00534,-6.225467 34.5368,1.377483 68.5462,7.191471 101.77374,16.745697 29.80133,8.569069 58.82483,19.326049 86.91657,32.620655 30.40051,14.387283 58.76672,31.961509 85.27209,52.586299 22.52246,17.52555 43.05042,37.1674 62.34753,58.2005 22.42298,24.44015 41.05555,51.53882 58.15699,80.24127 m -452.55832,435.0087 c 9.99444,10.03198 19.90021,20.15435 30.00461,30.07434 14.38458,14.12207 32.35449,14.23962 46.5683,0.13727 31.81445,-31.56476 63.55139,-63.20832 95.19567,-94.94361 14.2367,-14.27771 14.15479,-32.62604 -0.17511,-46.9851 -86.61767,-86.79361 -173.2948,-173.52787 -259.96942,-260.26462 -1.18402,-1.18488 -2.59353,-2.14441 -4.56061,-3.75019 -0.24865,2.22275 -0.48043,3.32706 -0.48028,4.43134 0.01,76.97107 -0.0597,153.94232 0.11194,230.91305 0.0703,31.52533 11.70178,58.4256 33.89035,80.7616 19.6084,19.73865 39.27447,39.42004 59.41455,59.62592 M 766.55267,529.05438 c 32.8349,-32.91513 65.69049,-65.80966 98.43518,-98.81427 1.43946,-1.45086 1.86341,-3.90918 2.76038,-5.89822 -1.9834,-0.46143 -4.02142,-1.48187 -5.94128,-1.29404 -13.09278,1.28088 -26.16053,2.81726 -39.2367,4.26846 -43.86298,4.86814 -87.71619,9.82639 -131.5921,14.57535 -39.57343,4.28336 -79.172,8.3331 -118.75745,12.50568 -1.71753,0.18103 -3.41406,0.56116 -6.10064,1.01358 1.61682,1.89682 2.46722,3.0524 3.4729,4.05176 42.78961,42.52044 85.591,85.02896 128.39715,127.53262 5.11267,5.07654 5.49591,5.08209 10.77918,-0.19153 19.10614,-19.07141 38.19183,-38.16321 57.78338,-57.74939 M 277.7352,371.76575 c -15.26389,-15.16614 -30.52779,-30.33231 -45.79169,-45.49845 -0.37285,0.26932 -0.74571,0.53864 -1.11856,0.80796 0,82.92083 0,165.8417 0,250.04321 2.10008,-1.7876 3.36583,-2.72461 4.46912,-3.82459 33.51931,-33.41894 67.04257,-66.83395 100.51925,-100.29556 14.23963,-14.23318 14.16355,-29.40695 -0.12774,-43.63418 -19.13437,-19.04865 -38.29773,-38.06812 -57.95038,-57.59839 m -24.87146,258.8681 c 35.31747,35.59039 70.6308,71.185 105.97565,106.74811 0.91326,0.919 2.17147,1.49499 3.69998,2.52002 0,-83.75092 0,-166.55164 0,-250.63462 -2.12168,1.72782 -3.41996,2.61484 -4.51783,3.70389 -34.178,33.90381 -68.36846,67.79517 -102.4786,101.76715 -10.34918,10.30738 -11.36724,23.19953 -2.6792,35.89545 m 646.63693,121.98376 c 6.21527,0 12.43054,0 20.08899,0 -1.92316,-2.96496 -2.79535,-4.48468 -3.83246,-5.88201 -13.70642,-18.46735 -27.35046,-36.9823 -41.23474,-55.31531 -2.64673,-3.49475 -2.45245,-5.73676 0.383,-8.99085 13.026,-14.94952 25.80572,-30.11383 38.63104,-45.23736 1.07068,-1.26258 1.82336,-2.79486 3.38068,-5.22827 -10.56495,0 -19.8537,0.14727 -29.13392,-0.07 -3.9024,-0.0914 -6.47601,1.3302 -8.90124,4.32208 -11.54181,14.23877 -23.26257,28.33276 -34.97394,42.43323 -1.1488,1.38312 -2.66791,2.45862 -5.13916,4.69342 0,-3.55316 -0.0127,-5.4931 0.002,-7.43286 0.0997,-12.9989 0.13183,-25.99902 0.35724,-38.99579 0.0616,-3.55969 -0.99427,-5.13336 -4.83026,-5.01587 -7.49256,0.22943 -15.00049,0.19208 -22.49549,0.004 -3.72082,-0.0933 -4.96081,1.35834 -4.91174,4.99786 0.15277,11.33081 0.0496,22.66486 0.0589,33.99768 0.0206,24.99878 0.0294,49.99762 0.088,74.99628 0.0151,6.4596 0.2699,6.66156 6.84985,6.69519 6.83283,0.0349 13.66773,-0.0863 20.49811,0.0477 3.43878,0.0674 4.73749,-1.29541 4.66864,-4.74207 -0.17981,-8.99658 -0.12421,-17.99786 -0.15161,-26.99731 -0.006,-1.83301 -0.61499,-4.04376 0.18567,-5.42377 1.91125,-3.29431 4.4978,-6.19678 6.81164,-9.25744 1.86091,1.66949 4.04291,3.09509 5.52808,5.04998 7.05634,9.28833 14.70349,18.25593 20.64386,28.22901 6.29443,10.56763 14.24524,15.52521 27.42871,13.12243 M 764.84863,658.31757 c 3.77014,2.12146 7.50537,4.3092 11.32892,6.32953 1.3924,0.73583 2.99536,1.07318 4.5022,1.5924 0.46716,-1.65607 1.29413,-3.30267 1.33801,-4.96985 0.17066,-6.49096 -0.0534,-12.9934 0.16699,-19.4815 0.11682,-3.44007 -1.25842,-4.99005 -4.48279,-6.02527 -14.61553,-4.69251 -29.55609,-6.6369 -44.84075,-5.58948 -11.07801,0.7591 -21.77961,3.07556 -31.23664,9.34967 -11.91266,7.9035 -17.26446,18.94647 -15.92474,33.24329 1.28326,13.69488 9.13287,22.36535 21.51697,26.77252 8.901,3.1676 18.27374,4.99628 27.40191,7.54449 4.95362,1.38288 10.11048,2.45502 14.6872,4.67456 7.23541,3.50879 7.74951,11.74378 0.84912,15.87983 -3.96155,2.37445 -8.93811,3.84423 -13.56781,4.17358 -16.93994,1.20508 -32.11566,-4.27289 -46.10083,-13.55267 -1.39929,-0.92847 -3.17871,-1.284 -4.78168,-1.90546 -0.3631,1.71844 -0.96936,3.42645 -1.04419,5.15735 -0.22992,5.32281 0.0421,10.68219 -0.44928,15.97461 -0.45715,4.9248 1.32544,7.52759 5.92328,9.42663 17.38745,7.18177 35.35797,9.22138 53.88165,6.80738 9.7146,-1.26587 18.71363,-4.71741 26.87732,-10.17243 12.50776,-8.3576 18.24097,-22.38293 15.15375,-36.89374 -2.59808,-12.21185 -11.04687,-19.27636 -22.00964,-23.18835 -9.21131,-3.28687 -18.93231,-5.12866 -28.38519,-7.76263 -4.78974,-1.33466 -9.76404,-2.45264 -14.15552,-4.66144 -5.84064,-2.93756 -6.35608,-9.67017 -0.98468,-13.39337 3.27502,-2.27008 7.4895,-3.87091 11.45031,-4.33448 11.05298,-1.29376 21.96076,-0.28589 32.88611,5.00483 z"
   id="path3"
   style="display:none" />
<path
   fill="#E87322"
   opacity="1.000000"
   stroke="none"
   d=" M486.608093,701.390503   C466.717743,681.434265 447.051666,661.752869 427.443268,642.014221   C405.254700,619.678223 393.623199,592.777954 393.552917,561.252625   C393.381287,484.281891 393.450684,407.310638 393.440979,330.339569   C393.440826,329.235291 393.672607,328.130981 393.921265,325.908234   C395.888336,327.514008 397.297852,328.473541 398.481873,329.658417   C485.156494,416.395172 571.833618,503.129425 658.451294,589.923035   C672.781189,604.282104 672.863098,622.630432 658.626404,636.908142   C626.982117,668.643433 595.245178,700.286987 563.430725,731.851746   C549.216919,745.954102 531.247009,745.836548 516.862427,731.714478   C506.758026,721.794495 496.852264,711.672119 486.608093,701.390503  z"
   id="path4" />
<path
   fill="#E77322"
   opacity="1.000000"
   stroke="none"
   d=" M766.303589,529.305420   C746.961121,548.640564 727.875427,567.732361 708.769287,586.803772   C703.486023,592.077393 703.102783,592.071838 697.990112,586.995300   C655.183960,544.491638 612.382568,501.983124 569.592957,459.462677   C568.587280,458.463318 567.736877,457.307739 566.120056,455.410919   C568.806641,454.958496 570.503174,454.578369 572.220703,454.397339   C611.806152,450.224762 651.404724,446.175018 690.978149,441.891663   C734.854065,437.142700 778.707275,432.184448 822.570251,427.316315   C835.646423,425.865112 848.714172,424.328735 861.806946,423.047852   C863.726807,422.860016 865.764832,423.880463 867.748230,424.341888   C866.851257,426.330933 866.427307,428.789246 864.987854,430.240112   C832.243164,463.244720 799.387573,496.139252 766.303589,529.305420  z"
   id="path5" />
<path
   fill="#E67322"
   opacity="1.000000"
   stroke="none"
   d=" M277.986084,372.014893   C297.387848,391.296021 316.551208,410.315491 335.685577,429.364136   C349.976868,443.591370 350.052948,458.765137 335.813324,472.998322   C302.336639,506.459930 268.813385,539.874939 235.294067,573.293884   C234.190781,574.393860 232.925034,575.330872 230.824951,577.118469   C230.824951,492.916962 230.824951,409.996094 230.824951,327.075256   C231.197800,326.805939 231.570663,326.536621 231.943512,326.267303   C247.207413,341.433441 262.471313,356.599609 277.986084,372.014893  z"
   id="path6" />
<path
   fill="#E67322"
   opacity="1.000000"
   stroke="none"
   d=" M252.640015,630.356750   C244.175705,617.937927 245.193756,605.045776 255.542938,594.738403   C289.653076,560.766418 323.843536,526.875061 358.021545,492.971252   C359.119415,491.882202 360.417694,490.995178 362.539368,489.267365   C362.539368,573.350342 362.539368,656.151062 362.539368,739.901978   C361.010864,738.876953 359.752655,738.300964 358.839386,737.381958   C323.494537,701.818848 288.181213,666.224243 252.640015,630.356750  z"
   id="path7" />
<path
   fill="#e27121"
   opacity="1"
   stroke="none"
   d="m 899.00159,752.61768 c -12.68439,2.40271 -20.6352,-2.55487 -26.92963,-13.1225 -5.94037,-9.97308 -13.58752,-18.94068 -20.64386,-28.22901 -1.48517,-1.95489 -3.66717,-3.38049 -5.52808,-5.04998 -2.31384,3.06066 -4.90039,5.96313 -6.81164,9.25744 -0.80066,1.38001 -0.19128,3.59076 -0.18567,5.42377 0.0274,8.99945 -0.0282,18.00073 0.15161,26.99731 0.0688,3.44666 -1.22986,4.80951 -4.66864,4.74207 -6.83038,-0.13403 -13.66528,-0.0128 -20.49811,-0.0477 -6.57995,-0.0336 -6.83471,-0.23559 -6.84985,-6.69519 -0.0586,-24.99866 -0.0674,-49.9975 -0.088,-74.99628 -0.009,-11.33282 0.0939,-22.66687 -0.0589,-33.99768 -0.0491,-3.63952 1.19092,-5.09118 4.91174,-4.99786 7.495,0.18805 15.00293,0.2254 22.49549,-0.004 3.83599,-0.11749 4.8919,1.45618 4.83026,5.01587 -0.22541,12.99677 -0.25751,25.99689 -0.35724,38.99579 -0.0148,1.93976 -0.002,3.8797 -0.002,7.43286 2.47125,-2.2348 3.99036,-3.3103 5.13916,-4.69342 11.71137,-14.10047 23.43213,-28.19446 34.97394,-42.43323 2.42523,-2.99188 4.99884,-4.41345 8.90124,-4.32208 9.28022,0.21728 18.56897,0.07 29.13392,0.07 -1.55732,2.43341 -2.31,3.96569 -3.38068,5.22827 -12.82532,15.12353 -25.60504,30.28784 -38.63104,45.23736 -2.83545,3.25409 -3.02973,5.4961 -0.383,8.99085 13.88428,18.33301 27.52832,36.84796 41.23474,55.31531 1.03711,1.39733 1.9093,2.91705 3.83246,5.88201 -7.65845,0 -13.87372,0 -20.58807,7e-5 z"
   id="path8"
   style="display:none" />
<path
   fill="#e27122"
   opacity="1"
   stroke="none"
   d="m 764.50378,658.15295 c -10.5805,-5.1261 -21.48828,-6.13397 -32.54126,-4.84021 -3.96081,0.46357 -8.17529,2.0644 -11.45031,4.33448 -5.3714,3.7232 -4.85596,10.45581 0.98468,13.39337 4.39148,2.2088 9.36578,3.32678 14.15552,4.66144 9.45288,2.63397 19.17388,4.47576 28.38519,7.76263 10.96277,3.91199 19.41156,10.9765 22.00964,23.18835 3.08722,14.51081 -2.64599,28.53614 -15.15375,36.89374 -8.16369,5.45502 -17.16272,8.90656 -26.87732,10.17243 -18.52368,2.414 -36.4942,0.37439 -53.88165,-6.80738 -4.59784,-1.89904 -6.38043,-4.50183 -5.92328,-9.42663 0.49134,-5.29242 0.21936,-10.6518 0.44928,-15.97461 0.0748,-1.7309 0.68109,-3.43891 1.04419,-5.15735 1.60297,0.62146 3.38239,0.97699 4.78168,1.90546 13.98517,9.27978 29.16089,14.75775 46.10083,13.55267 4.6297,-0.32935 9.60626,-1.79913 13.56781,-4.17358 6.90039,-4.13605 6.38629,-12.37104 -0.84912,-15.87983 -4.57672,-2.21954 -9.73358,-3.29168 -14.6872,-4.67456 -9.12817,-2.54821 -18.50091,-4.37689 -27.40191,-7.54449 -12.3841,-4.40717 -20.23371,-13.07764 -21.51697,-26.77252 -1.33972,-14.29682 4.01208,-25.33979 15.92474,-33.24329 9.45703,-6.27411 20.15863,-8.59057 31.23664,-9.34967 15.28466,-1.04742 30.22522,0.89697 44.84075,5.58948 3.22437,1.03522 4.59961,2.5852 4.48279,6.02527 -0.2204,6.4881 0.004,12.99054 -0.16699,19.4815 -0.0439,1.66718 -0.87085,3.31378 -1.33801,4.96985 -1.50684,-0.51922 -3.1098,-0.85657 -4.5022,-1.5924 -3.82355,-2.02033 -7.55878,-4.20807 -11.67377,-6.49415 z"
   id="path9"
   style="display:none" />
<text
   xml:space="preserve"
   style="font-style:normal;font-variant:normal;font-weight:bold;font-stretch:normal;font-size:160px;line-height:1.25;font-family:Sans;-inkscape-font-specification:'Sans, Bold';font-variant-ligatures:normal;font-variant-caps:normal;font-variant-numeric:normal;font-variant-east-asian:normal;letter-spacing:0px;word-spacing:0px;fill:#e87322;fill-opacity:1"
   x="674.59027"
   y="749.82812"
   id="text9"><tspan
     sodipodi:role="line"
     id="tspan10">sk</tspan></text></svg>
